<?xml version="1.0" encoding="UTF-8"?>
<svg width="259px" height="71px" viewBox="0 0 259 71" version="1.1" xmlns="http://www.w3.org/2000/svg" xmlns:xlink="http://www.w3.org/1999/xlink">
    <!-- Generator: Sketch 57.1 (83088) - https://sketch.com -->
    <title>Group 25</title>
    <desc>Created with Sketch.</desc>
    <defs>
        <polygon id="path-1" points="0 0.2714 25.3709 0.2714 25.3709 38 0 38"></polygon>
        <polygon id="path-3" points="0.2566 0.9836 28.373 0.9836 28.373 11.5946 0.2566 11.5946"></polygon>
    </defs>
    <g id="Page-1" stroke="none" stroke-width="1" fill="none" fill-rule="evenodd">
        <g id="Group-25">
            <g id="Group-3" transform="translate(0.000000, 33.100600)">
                <mask id="mask-2" fill="white">
                    <use xlink:href="#path-1"></use>
                </mask>
                <g id="Clip-2"></g>
                <path d="M6.5069,5.8764 L6.5069,21.8154 C7.1979,22.0164 7.8649,22.1614 8.5029,22.2524 C9.1399,22.3444 9.7599,22.3894 10.3619,22.3894 C12.8959,22.3894 14.9179,21.5824 16.4319,19.9694 C17.9439,18.3564 18.6999,16.1924 18.6999,13.4774 C18.6999,10.9624 17.9939,8.9344 16.5809,7.3944 C15.1689,5.8554 13.3239,5.0844 11.0449,5.0844 C10.3159,5.0844 9.5829,5.1474 8.8449,5.2744 C8.1059,5.4014 7.3269,5.6034 6.5069,5.8764 M6.5069,26.6544 L6.5069,36.8404 L-0.0001,38.0004 L-0.0001,1.2834 L6.5069,1.2834 C7.4919,0.9384 8.4469,0.6824 9.3769,0.5174 C10.3079,0.3544 11.2359,0.2714 12.1659,0.2714 C16.0669,0.2714 19.2419,1.5014 21.6949,3.9624 C24.1449,6.4244 25.3709,9.6134 25.3709,13.5314 C25.3709,17.6494 24.0549,20.9324 21.4219,23.3744 C18.7869,25.8164 15.2459,27.0374 10.7989,27.0374 C10.2519,27.0374 9.6509,27.0104 8.9949,26.9544 C8.3379,26.9004 7.5099,26.8004 6.5069,26.6544" id="Fill-1" fill="#FFFFFF" mask="url(#mask-2)"></path>
            </g>
            <polygon id="Fill-4" fill="#FFFFFF" points="37.7355 59.017 31.1185 59.017 31.1185 21.088 37.7355 19.914"></polygon>
            <path d="M62.0958,53.3578 L62.0958,39.6318 C61.1648,39.1408 60.3238,38.7768 59.5668,38.5408 C58.8098,38.3028 58.1208,38.1838 57.5028,38.1838 C55.2058,38.1838 53.3508,39.0218 51.9398,40.6988 C50.5278,42.3768 49.8188,44.5998 49.8188,47.3708 C49.8188,49.7948 50.4398,51.6898 51.6798,53.0568 C52.9178,54.4238 54.6318,55.1068 56.8188,55.1068 C57.5848,55.1068 58.4048,54.9618 59.2808,54.6698 C60.1548,54.3788 61.0928,53.9418 62.0958,53.3578 L62.0958,53.3578 Z M63.4888,60.1928 L63.0518,58.2798 C61.6668,58.8988 60.3828,59.3638 59.1978,59.6728 C58.0118,59.9828 56.9018,60.1378 55.8618,60.1378 C52.0878,60.1378 49.0398,58.9398 46.7168,56.5428 C44.3918,54.1458 43.2308,51.0158 43.2308,47.1518 C43.2308,43.2878 44.4918,40.0348 47.0188,37.3918 C49.5418,34.7488 52.5908,33.4268 56.1628,33.4268 C57.1658,33.4268 58.2038,33.5538 59.2808,33.8098 C60.3548,34.0658 61.4938,34.4568 62.6968,34.9848 L68.5748,34.3838 L68.5748,51.5798 C68.5748,52.8918 68.6438,54.1698 68.7808,55.4088 C68.9168,56.6478 69.1128,57.8508 69.3678,59.0168 L63.4888,60.1928 Z" id="Fill-6" fill="#FFFFFF"></path>
            <path d="M82.4698,59.017 L75.9628,59.017 L75.9628,34.384 L82.0048,34.384 L82.0048,38.512 C83.3538,36.89 84.8168,35.682 86.3928,34.89 C87.9698,34.098 89.6978,33.701 91.5738,33.701 C94.3628,33.701 96.4828,34.448 97.9308,35.943 C99.3798,37.436 100.1048,39.624 100.1048,42.503 L100.1048,59.017 L93.5978,59.017 L93.5978,43.899 C93.5978,42.386 93.2248,41.243 92.4778,40.468 C91.7298,39.692 90.6268,39.304 89.1688,39.304 C87.0188,39.304 85.3628,39.815 84.2068,40.835 C83.0488,41.856 82.4698,43.324 82.4698,45.238 L82.4698,59.017 Z" id="Fill-8" fill="#FFFFFF"></path>
            <polygon id="Fill-10" fill="#FFFFFF" points="116.4669 60.5756 115.7299 60.5756 104.0279 34.3846 111.0259 34.3846 116.8499 47.9986 123.2199 34.3846 128.8249 34.3846"></polygon>
            <path d="M139.5821,59.017 L132.9661,59.017 L132.9661,34.384 L139.5821,33.208 L139.5821,59.017 Z M132.3631,25.253 C132.3631,24.16 132.7421,23.224 133.4991,22.449 C134.2561,21.675 135.1801,21.288 136.2731,21.288 C137.3681,21.288 138.2931,21.675 139.0501,22.449 C139.8061,23.224 140.1841,24.16 140.1841,25.253 C140.1841,26.328 139.8061,27.239 139.0501,27.986 C138.2931,28.734 137.3681,29.108 136.2731,29.108 C135.1801,29.108 134.2561,28.734 133.4991,27.986 C132.7421,27.239 132.3631,26.328 132.3631,25.253 L132.3631,25.253 Z" id="Fill-12" fill="#FFFFFF"></path>
            <path d="M152.2814,44.5268 L164.5034,43.9528 L164.5034,43.6248 C164.5034,42.0938 163.9924,40.8488 162.9714,39.8918 C161.9514,38.9358 160.6294,38.4578 159.0074,38.4578 C157.2204,38.4578 155.7404,38.9908 154.5644,40.0568 C153.3884,41.1238 152.6284,42.6138 152.2814,44.5268 M169.6424,51.8538 L168.9864,57.7868 C167.0724,58.5898 165.3044,59.1808 163.6824,59.5638 C162.0604,59.9468 160.5024,60.1378 159.0074,60.1378 C155.1424,60.1378 151.9494,58.8718 149.4254,56.3378 C146.8994,53.8038 145.6384,50.5868 145.6384,46.6868 C145.6384,42.8038 146.8994,39.5978 149.4254,37.0638 C151.9494,34.5308 155.1424,33.2628 159.0074,33.2628 C162.5244,33.2628 165.3444,34.2428 167.4694,36.2028 C169.5924,38.1628 170.6544,40.7638 170.6544,44.0068 C170.6544,44.4448 170.6264,45.1658 170.5714,46.1688 C170.5534,46.3318 170.5454,46.4508 170.5454,46.5238 L169.9154,47.5328 L152.1724,48.1628 C152.3364,50.3148 153.0894,51.9908 154.4274,53.1938 C155.7674,54.3968 157.5774,54.9988 159.8544,54.9988 C161.2224,54.9988 162.6664,54.7568 164.1874,54.2738 C165.7104,53.7918 167.5264,52.9838 169.6424,51.8538" id="Fill-14" fill="#FFFFFF"></path>
            <polygon id="Fill-16" fill="#FFFFFF" points="184.9864 60.5756 184.2764 60.5756 173.1754 34.3846 179.7924 34.3846 185.5074 49.5576 192.4514 32.9336 193.5164 32.9336 199.3944 49.5576 205.7644 34.3846 211.2594 34.3846 198.9294 60.5756 198.2184 60.5756 191.9304 45.2376"></polygon>
            <g id="Group-20" transform="translate(230.000000, 11.100600)">
                <mask id="mask-4" fill="white">
                    <use xlink:href="#path-3"></use>
                </mask>
                <g id="Clip-19"></g>
                <path d="M23.8146,2.4926 C20.6226,1.6836 17.6646,0.9836 17.6646,0.9836 L0.2566,11.5946 L26.6376,6.8886 C27.8406,6.6736 28.3736,6.7546 28.3736,6.7546 C28.3736,6.7546 27.4556,3.4146 23.8146,2.4926" id="Fill-18" fill="#FFFFFF" mask="url(#mask-4)"></path>
            </g>
            <path d="M203.923,1.3627 C201.04,0.6427 200.59,0.0007 200.59,0.0007 C200.59,0.0007 200.295,1.5987 204.995,4.9187 C209.694,8.2377 215.625,12.4317 221.925,16.8517 C226.549,20.0967 230.258,22.6947 230.258,22.6947 L247.665,12.0847 C247.665,12.0847 206.805,2.0817 203.923,1.3627" id="Fill-21" fill="#CECFD2"></path>
            <path d="M213.84,22.5453 C209.953,25.3433 208.943,24.2583 208.943,24.2583 C208.943,24.2583 209.665,26.3343 213.283,25.7053 C216.902,25.0753 230.258,22.6923 230.258,22.6923 C230.258,22.6923 226.549,20.0973 221.926,16.8533 C220.587,17.7953 217.728,19.7473 213.84,22.5453" id="Fill-23" fill="#A5A7AC"></path>
        </g>
    </g>
</svg>